<svg width="52" height="48" viewBox="0 0 52 48" fill="none" xmlns="http://www.w3.org/2000/svg">
<path d="M48.9 1.15481C48.3244 1.17983 47.7642 1.33852 47.2589 1.53896C46.7588 1.73805 43.8796 2.95541 39.6278 4.75618C35.3761 6.55696 29.8491 8.90194 24.3704 11.2272C13.4129 15.8778 2.64525 20.4536 2.64525 20.4536L2.72373 20.4239C2.72373 20.4239 2.07385 20.6391 1.41496 21.0938C1.08551 21.3212 0.731082 21.6148 0.44088 22.0428C0.150677 22.4708 -0.0614799 23.0773 0.0184719 23.7188C0.299299 25.9722 2.65679 26.6114 2.65679 26.6114L2.66602 26.6159L13.187 30.183C13.4552 31.0695 16.378 40.7333 17.021 42.7798C17.376 43.9113 17.7084 44.564 18.0551 45.0092C18.2285 45.232 18.4103 45.4045 18.6113 45.5306C18.6912 45.5807 18.7752 45.6183 18.8583 45.6518C18.8601 45.6525 18.8612 45.651 18.8629 45.6518C18.8731 45.6562 18.8828 45.6566 18.8929 45.6609L18.8652 45.6541C18.8846 45.6618 18.9036 45.6748 18.9229 45.6815C18.9605 45.6945 18.9834 45.6941 19.0314 45.7044C20.2363 46.1211 21.2335 45.3476 21.2335 45.3476L21.275 45.3156L27.7381 39.3774L38.2267 47.4787L38.3583 47.5382C40.1942 48.3457 41.8545 47.8952 42.774 47.1541C43.6934 46.4129 44.055 45.4574 44.055 45.4574L44.0943 45.3568L51.8015 5.56335C51.9987 4.67308 52.0267 3.90354 51.8407 3.20817C51.6547 2.51279 51.2029 1.9083 50.6358 1.57326C50.0688 1.23821 49.4756 1.1298 48.9 1.15481ZM48.9624 3.53515C49.1961 3.52442 49.3694 3.5509 49.424 3.58317C49.4786 3.61544 49.5031 3.61119 49.5556 3.80725C49.608 4.00331 49.6364 4.41627 49.4933 5.06259L49.4886 5.07631L41.8253 44.6388C41.8071 44.6786 41.6475 45.0446 41.2829 45.3385C40.9109 45.6383 40.4972 45.8723 39.3993 45.4162L27.9297 36.5557L27.6065 36.3042L27.5996 36.3111L24.1696 33.7615L43.4457 11.2958C43.5938 11.1236 43.6884 10.9126 43.718 10.6883C43.7477 10.464 43.7111 10.236 43.6127 10.0319C43.5143 9.82775 43.3583 9.65622 43.1636 9.53804C42.9688 9.41985 42.7437 9.36008 42.5155 9.36594C42.2924 9.37168 42.0755 9.43986 41.8899 9.56259L13.9972 27.9833L3.46006 24.4094C3.46006 24.4094 2.41372 23.8326 2.36364 23.4307C2.36087 23.4085 2.34851 23.4286 2.40288 23.3484C2.45725 23.2682 2.59392 23.1328 2.76528 23.0146C3.10798 22.778 3.4993 22.635 3.4993 22.635L3.53854 22.6213L3.57778 22.6053C3.57778 22.6053 14.346 18.0292 25.3029 13.3789C30.7814 11.0537 36.3074 8.71047 40.5581 6.91015C44.8077 5.11028 47.8783 3.81476 48.1383 3.71121C48.4343 3.59379 48.7286 3.54587 48.9624 3.53515ZM36.1793 16.148L21.5613 33.1853L21.5543 33.1922C21.5315 33.2194 21.51 33.2476 21.4897 33.2768C21.4665 33.3084 21.445 33.3413 21.4251 33.3751C21.3429 33.5132 21.2903 33.6665 21.2704 33.8255C21.2704 33.8286 21.2704 33.8316 21.2704 33.8347L19.3661 42.3179C19.3345 42.2263 19.3123 42.1927 19.2784 42.0847V42.0824C18.6736 40.1572 15.916 31.0433 15.5345 29.7829L36.1793 16.148ZM23.2117 35.9772L25.8384 37.93L21.9791 41.4742L23.2117 35.9772Z" fill="url(#paint0_linear_214_723)"/>
<defs>
<linearGradient id="paint0_linear_214_723" x1="51.9659" y1="22.6865" x2="0.00146493" y2="22.6865" gradientUnits="userSpaceOnUse">
<stop stop-color="#CF1522"/>
<stop offset="1" stop-color="#E31725"/>
</linearGradient>
</defs>
</svg>
