<svg width="42" height="47" viewBox="0 0 42 47" fill="none" xmlns="http://www.w3.org/2000/svg">
<path d="M20.426 0.00103813C19.0628 0.0090208 17.6956 0.0928332 16.3167 0.26445C13.68 0.595709 11.0668 1.14648 8.55898 2.32385C4.57075 4.19566 1.74266 7.37256 0.922354 11.9902C0.574702 13.9379 0.293455 15.9135 0.133301 17.901C-0.175289 21.7604 0.0161145 25.6318 1.08642 29.4353C1.93016 32.4326 3.48482 35.1265 6.20745 36.8746C7.35978 37.613 8.87929 37.9722 9.67225 38.3473C9.89491 38.4551 9.94959 38.519 9.96131 38.5349C9.97303 38.5469 10.0043 38.5748 10.0004 38.8143C9.97303 41.2568 10.0004 45.9823 10.0004 45.9823L10.0043 47H11.7894L12.0785 46.7126C12.0785 46.7126 16.6136 42.2546 18.2542 40.4187C18.5511 40.0914 18.7034 39.9078 18.7346 39.8879C18.762 39.8679 18.7151 39.856 19.0198 39.848C21.1721 39.8041 23.3205 39.7203 25.4689 39.6005C28.3009 39.4409 31.1876 39.1655 33.9649 37.9802C36.3829 36.9465 38.4024 35.2582 39.625 32.7279C40.875 30.1337 41.543 27.3838 41.793 24.5382C42.207 19.8008 42.0625 15.0554 40.7813 10.3778C40.0274 7.63597 38.5118 5.31716 36.1876 3.68081C33.4063 1.72518 30.2697 0.990826 27.1994 0.52387C25.4064 0.252476 23.6018 0.0728781 21.7893 0.0170024C21.3362 0.00502895 20.8831 -0.0029527 20.426 0.00103813ZM21.7346 2.06044C23.4572 2.10833 25.1799 2.27995 26.9064 2.54336C29.8673 2.99435 32.6603 3.68081 35.0548 5.36505C36.9962 6.73 38.2071 8.57388 38.8555 10.9246C40.0508 15.2988 40.2031 19.7808 39.8008 24.3586C39.5703 26.9967 38.9571 29.4831 37.8282 31.8259C36.8321 33.8933 35.2774 35.2064 33.1915 36.0964C30.7697 37.1301 28.1369 37.4054 25.3635 37.5611C23.2385 37.6808 21.1096 37.7606 18.9807 37.8046C18.4456 37.8165 17.9222 37.9602 17.5511 38.2396C17.18 38.519 17.012 38.7784 16.7815 39.0338C15.6097 40.3429 13.2738 42.6457 12.0004 43.9069C11.9925 42.3823 11.9808 40.5384 12.0004 38.8382C12.0082 38.3154 11.891 37.7806 11.598 37.3575C11.305 36.9345 10.9027 36.6791 10.516 36.4955C9.3871 35.9607 7.91055 35.5536 7.26994 35.1425C5.03168 33.7057 3.76216 31.5505 3.00827 28.8685C2.02 25.3604 1.8325 21.7484 2.12547 18.0727C2.28171 16.1649 2.55124 14.2532 2.89108 12.3574C3.60201 8.36235 5.83636 5.84797 9.39101 4.1797C11.6371 3.12605 14.0355 2.60721 16.5628 2.29192C18.2854 2.0764 20.0081 2.00855 21.7346 2.06044ZM22.1565 7.15305C21.3323 7.15305 20.5315 7.24884 19.7542 7.42445C19.219 7.55216 18.8792 8.09894 19.0003 8.64971C19.1214 9.20048 19.6604 9.54371 20.1995 9.41999C20.8284 9.27232 21.4846 9.19649 22.1565 9.19649C27.0392 9.19649 30.9767 13.2195 30.9767 18.2044C30.9767 18.8948 30.9025 19.5653 30.7579 20.2119C30.6369 20.7586 30.9728 21.3094 31.5118 21.4331C32.0509 21.5569 32.586 21.2096 32.7071 20.6589C32.8829 19.8686 32.9767 19.0505 32.9767 18.2044C32.9767 12.114 28.1213 7.15305 22.1565 7.15305ZM12.18 9.20048C12.016 9.1925 11.848 9.20447 11.6722 9.24438C9.85584 9.65546 8.05118 11.0005 8.0004 13.4031C8.05118 13.7383 8.04727 14.0975 8.16836 14.4009C8.76211 15.8855 9.27773 17.4181 10.0199 18.823C13.6331 25.6477 19.0979 30.3931 26.0627 33.4064C26.8947 33.7656 27.7541 33.8414 28.5939 33.4822C29.7501 32.9913 30.7306 32.233 31.3829 31.1434C32.2775 29.6468 32.2892 28.6091 30.8165 27.5036C29.8517 26.7772 28.9025 26.0309 27.9259 25.3205C26.4377 24.2429 24.8283 24.0553 23.719 25.9471C23.6604 26.0428 23.5744 26.1227 23.5002 26.2025C22.9299 26.8211 22.2307 26.9728 21.4885 26.6615C18.6721 25.4761 16.4964 23.5644 15.1839 20.7187C14.4105 19.0465 14.6214 18.2083 16.0667 17.0948C16.2112 16.9871 16.348 16.8713 16.4808 16.7476C17.1136 16.1569 17.2815 15.4545 16.9065 14.6603C16.0589 12.8483 14.93 11.2319 13.5003 9.83905C13.1136 9.46389 12.6722 9.22842 12.18 9.20048ZM22.1409 10.2182C21.6995 10.2182 21.262 10.2541 20.8323 10.33C20.469 10.3778 20.1604 10.6253 20.0276 10.9725C19.8948 11.3237 19.9612 11.7188 20.1956 12.0062C20.4338 12.2896 20.8088 12.4213 21.1682 12.3415C21.4807 12.2896 21.8088 12.2616 22.1409 12.2616C25.3908 12.2616 28.0002 14.9277 28.0002 18.2483C28.0002 18.5875 27.9728 18.9228 27.922 19.242C27.8439 19.6092 27.9728 19.9924 28.2502 20.2358C28.5314 20.4753 28.9181 20.5431 29.2619 20.4074C29.6017 20.2717 29.8439 19.9564 29.8908 19.5853C29.965 19.1463 30.0001 18.6993 30.0001 18.2483C30.0001 13.8261 26.4689 10.2182 22.1409 10.2182ZM22.0002 13.2834C21.6409 13.2794 21.3049 13.4709 21.1213 13.7902C20.9417 14.1095 20.9417 14.5006 21.1213 14.8199C21.3049 15.1392 21.6409 15.3308 22.0002 15.3268C23.6682 15.3268 25.0002 16.6877 25.0002 18.3919C24.9963 18.7591 25.1838 19.1024 25.4963 19.2899C25.8088 19.4735 26.1916 19.4735 26.5041 19.2899C26.8166 19.1024 27.0041 18.7591 27.0002 18.3919C27.0002 15.5822 24.7502 13.2834 22.0002 13.2834Z" fill="#fff"/>
<defs>
<linearGradient id="paint0_linear_214_719" x1="41.9999" y1="21.62" x2="6.6798e-08" y2="21.62" gradientUnits="userSpaceOnUse">
<stop stop-color="#CF1522"/>
<stop offset="1" stop-color="#E31725"/>
</linearGradient>
</defs>
</svg>
