<svg width="47" height="47" viewBox="0 0 47 47" fill="none" xmlns="http://www.w3.org/2000/svg">
<path fill-rule="evenodd" clip-rule="evenodd" d="M39.7106 7.30432C35.4066 3.00037 29.6879 0.625 23.5968 0.625C11.0424 0.625 0.818604 10.8413 0.818604 23.3958C0.811157 27.4093 1.86108 31.326 3.85669 34.7811L0.625 46.5835L12.7029 43.4114C16.0239 45.2283 19.7769 46.1814 23.5894 46.1888H23.5968C36.1512 46.1888 46.3676 35.9725 46.375 23.4106C46.375 17.327 44.0071 11.6083 39.7106 7.30432ZM23.5968 42.3391H23.5894C20.1938 42.3391 16.8579 41.4232 13.9539 39.7031L13.2614 39.2936L6.09058 41.17L8.00427 34.1854L7.5575 33.4706C5.65869 30.4548 4.66089 26.97 4.66089 23.3958C4.66089 12.9635 13.1571 4.47473 23.6042 4.47473C28.6603 4.47473 33.411 6.448 36.9852 10.0222C40.5594 13.6039 42.5253 18.3546 42.5253 23.4106C42.5253 33.8503 34.0291 42.3391 23.5968 42.3391ZM33.9769 28.1614C33.411 27.8784 30.6112 26.5009 30.09 26.3147C29.5687 26.1211 29.189 26.0317 28.8092 26.5977C28.4294 27.171 27.3423 28.4518 27.0072 28.8315C26.6796 29.2039 26.3445 29.256 25.7786 28.973C25.2052 28.6901 23.3734 28.0869 21.1991 26.1434C19.5088 24.6393 18.3621 22.7703 18.0344 22.2043C17.6993 21.631 17.9972 21.3257 18.2802 21.0427C18.5408 20.7896 18.8535 20.38 19.1365 20.0449C19.4194 19.7173 19.5162 19.479 19.7098 19.0992C19.896 18.7195 19.7992 18.3844 19.6577 18.1014C19.5162 17.8185 18.377 15.0112 17.9004 13.8719C17.4387 12.7625 16.9696 12.9188 16.6196 12.8965C16.292 12.8816 15.9122 12.8816 15.5325 12.8816C15.1527 12.8816 14.5347 13.0231 14.0134 13.5964C13.4922 14.1624 12.0253 15.5399 12.0253 18.3397C12.0253 21.1395 14.0656 23.85 14.3485 24.2297C14.6315 24.602 18.3621 30.3506 24.0734 32.8153C25.4286 33.4036 26.486 33.7535 27.3125 34.0142C28.6752 34.446 29.9187 34.3865 30.9016 34.245C31.9962 34.0812 34.2673 32.8674 34.7439 31.5345C35.213 30.2091 35.213 29.0698 35.0715 28.8315C34.9301 28.5933 34.5503 28.4518 33.9769 28.1614Z" fill="#fff"/>
<defs>
<linearGradient id="paint0_linear_214_721" x1="46.375" y1="21.7659" x2="0.625" y2="21.7659" gradientUnits="userSpaceOnUse">
<stop stop-color="#CF1522"/>
<stop offset="1" stop-color="#E31725"/>
</linearGradient>
</defs>
</svg>
