<svg xmlns="http://www.w3.org/2000/svg" width="230" height="42"><path d="M.305 39.98v-2.02h171.038V9.522h1.625V7.26h-1.72c-.967 0-1.695-.064-1.664-.147.08-.22 6.208-7.1 6.335-7.113.118-.012 6.47 7.03 6.47 7.173 0 .048-.768.087-1.706.087h-1.705v2.262h1.624V37.96h49.703V42h-230ZM177.353 8.391v-1.13h-2.761v2.261h2.761z" style="fill:#c50a26;stroke-width:.16200438;fill-opacity:1"/><path d="M10.966 34.478c-3.418-.676-5.967-2.147-7.85-4.532-2.101-2.663-2.928-5.192-2.76-8.44.119-2.27.393-3.36 1.328-5.278.879-1.803 1.957-3.147 3.379-4.212 4.79-3.589 11.398-3.909 16.301-.789 1.507.959 4.538 4.071 4.247 4.36-.035.036-1.841.687-4.012 1.447l-3.948 1.382-.625-.562c-1.268-1.14-1.823-1.406-2.96-1.423-1.26-.02-2.151.424-3.175 1.58-1.112 1.258-1.573 3.391-1.175 5.439.473 2.433 2.412 4.13 4.543 3.978 1.535-.11 2.939-1.019 2.939-1.901 0-.11-.697-.17-1.95-.17H13.3V19.702h14.018l-.101 2.06c-.203 4.144-1.082 6.615-3.105 8.736-3.116 3.265-8.506 4.897-13.146 3.98zM30.68 21.883V9.523h6.294c8.54.002 9.666.159 11.915 1.653 2.388 1.585 3.73 4.808 3.259 7.823-.448 2.868-1.749 4.4-4.383 5.163-.261.076-.533-.366 2.87 4.67 3.303 4.885 2.925 4.357 3.037 4.246.05-.05 1.972-5.351 4.272-11.782l4.183-11.693 5.044-.043 5.044-.042 4.409 12.284c2.425 6.757 4.409 12.322 4.409 12.366 0 .045-2.175.062-4.832.038l-4.832-.043-.4-1.494-.402-1.495h-6.84l-.414 1.495-.414 1.494-9.431.042-9.431.042-1.788-3.356c-.984-1.845-1.96-3.646-2.172-4l-.383-.645-.043 3.999-.043 4H30.68zm38.297 3.272c-.04-.11-.465-1.965-.946-4.12-.482-2.155-.917-3.918-.968-3.918-.05 0-.442 1.69-.87 3.756-.43 2.067-.818 3.92-.865 4.12-.086.362-.074.364 1.817.364 1.452 0 1.886-.048 1.832-.202zm-26.373-4.812c.768-.386 1.095-.965 1.104-1.957.016-1.762-.91-2.552-2.998-2.558l-1.097-.004v4.882l1.259-.063c.692-.034 1.472-.17 1.732-.3zm41.352 1.538V9.517l4.424.043 4.423.043 3.754 6.182c2.064 3.4 3.784 6.212 3.82 6.249.038.037.041-2.763.009-6.222l-.06-6.29H109.133v24.722h-9.05l-3.8-6.303c-2.088-3.466-3.822-6.231-3.851-6.144-.03.087.025 1.074.121 2.192.096 1.117.175 3.882.175 6.144v4.111h-8.771zm29.075-.014V9.489l5.888.078c6.47.085 7.528.212 10.384 1.249 1.716.623 2.608 1.156 3.767 2.25 1.716 1.62 2.919 3.57 3.509 5.69.406 1.456.451 4.55.091 6.252-1.099 5.198-5.04 8.249-11.7 9.058-.804.097-3.82.177-6.7.178h-5.239V21.867Zm11.65 4.538c1.72-.508 2.796-1.624 3.136-3.251.367-1.76-.274-3.993-1.388-4.839-.786-.596-1.951-.994-3.295-1.126l-1.17-.114v9.779l.972-.11c.534-.06 1.32-.213 1.746-.339zm25.222-4.522V9.523h9.096v16.804h8.771v7.918H149.903zm34.597-.002V9.517l4.421.043 4.421.043 3.752 6.177c2.063 3.398 3.783 6.21 3.823 6.25.04.039.045-2.759.012-6.218l-.06-6.29h8.808v24.722h-9.051l-3.799-6.303c-2.089-3.466-3.822-6.231-3.852-6.144-.029.087.026 1.074.122 2.192.096 1.117.174 3.882.174 6.144v4.111H184.5V21.881Zm28.588.002V9.523h16.892v6.786h-7.796V18.57h7.147v6.301h-7.147v2.586H230.305v6.786h-17.218z" style="fill:#231f20;fill-opacity:1;stroke-width:.16200438"/></svg>